<svg width="14" height="21" viewBox="0 0 14 21" fill="none" xmlns="http://www.w3.org/2000/svg">
<path fill-rule="evenodd" clip-rule="evenodd" d="M1.60749 1.75032C0.764587 2.59322 0.764636 3.94979 0.764586 6.66305L0.764587 14.3371C0.764587 17.0504 0.764586 18.407 1.60753 19.2499C2.4504 20.0928 3.80698 20.0928 6.52022 20.0928L7.47948 20.0928C10.1927 20.0928 11.5493 20.0928 12.3922 19.2499C13.235 18.407 13.235 17.0504 13.235 14.3372L13.2351 6.66306C13.2351 3.9498 13.2351 2.59324 12.3922 1.75032C11.5493 0.907432 10.1927 0.907432 7.47948 0.907432L6.5202 0.907432C3.80699 0.907432 2.45038 0.907432 1.60749 1.75032ZM9.39767 4.53565C9.81188 4.53565 10.1477 4.19986 10.1477 3.78565C10.1477 3.37143 9.81188 3.03565 9.39767 3.03565L4.60133 3.03564C4.18711 3.03565 3.85133 3.37143 3.85133 3.78564C3.85133 4.19986 4.18711 4.53565 4.60133 4.53564L9.39767 4.53565ZM6.99929 17.2155C7.794 17.2154 8.43818 16.5712 8.43825 15.7765C8.43825 14.9819 7.794 14.3376 6.99936 14.3376C6.20464 14.3377 5.56047 14.9819 5.56039 15.7766C5.56039 16.5712 6.20464 17.2155 6.99929 17.2155Z" fill="#4E4E4E"/>
</svg>
